<svg width="279" height="275" viewBox="0 0 279 275" fill="none" xmlns="http://www.w3.org/2000/svg">
<mask id="path-1-inside-1_6_2" fill="white">
<path d="M279 137.5C279 102.376 265.901 68.5836 242.389 43.0561C218.878 17.5285 186.737 2.20126 152.562 0.219119C118.387 -1.76302 84.7677 9.75018 58.6027 32.3966C32.4377 55.043 15.7107 87.1055 11.8535 122.006C7.99627 156.906 17.3013 191.998 37.8595 220.081C58.4178 248.165 88.6703 267.111 122.41 273.032C156.15 278.953 190.82 271.401 219.305 251.924C247.79 232.447 267.932 202.523 275.597 168.291L145 137.5H279Z"/>
</mask>
<g filter="url(#filter0_i_6_2)">
<path d="M279 137.5C279 102.376 265.901 68.5836 242.389 43.0561C218.878 17.5285 186.737 2.20126 152.562 0.219119C118.387 -1.76302 84.7677 9.75018 58.6027 32.3966C32.4377 55.043 15.7107 87.1055 11.8535 122.006C7.99627 156.906 17.3013 191.998 37.8595 220.081C58.4178 248.165 88.6703 267.111 122.41 273.032C156.15 278.953 190.82 271.401 219.305 251.924C247.79 232.447 267.932 202.523 275.597 168.291L145 137.5H279Z" fill="#159301"/>
</g>
<path d="M279 137.5C279 102.376 265.901 68.5836 242.389 43.0561C218.878 17.5285 186.737 2.20126 152.562 0.219119C118.387 -1.76302 84.7677 9.75018 58.6027 32.3966C32.4377 55.043 15.7107 87.1055 11.8535 122.006C7.99627 156.906 17.3013 191.998 37.8595 220.081C58.4178 248.165 88.6703 267.111 122.41 273.032C156.15 278.953 190.82 271.401 219.305 251.924C247.79 232.447 267.932 202.523 275.597 168.291L145 137.5H279Z" stroke="#0B4B01" stroke-width="10" mask="url(#path-1-inside-1_6_2)"/>
<g filter="url(#filter1_d_6_2)">
<g filter="url(#filter2_d_6_2)">
<path d="M76.7338 62.5667C98.2011 39.5658 130.444 54.461 143.882 64.7837C117.207 80.9293 102.515 80.254 76.7338 62.5667Z" fill="#E6205C"/>
<path d="M76.7338 62.5667C98.2011 39.5658 130.444 54.461 143.882 64.7837C117.207 80.9293 102.515 80.254 76.7338 62.5667Z" stroke="#E6205C"/>
</g>
<g filter="url(#filter3_d_6_2)">
<path d="M73.0952 76.266C103.564 88.3151 97.0494 120.573 89.9833 135.196C65.2713 116.663 61.7773 103.714 73.0952 76.266Z" fill="#E6205C"/>
<path d="M73.0952 76.266C103.564 88.3151 97.0494 120.573 89.9833 135.196C65.2713 116.663 61.7773 103.714 73.0952 76.266Z" stroke="#E6205C"/>
</g>
<g filter="url(#filter4_d_6_2)">
<path d="M77.3657 65.7306C60.4532 39.7966 86.5808 17.1044 101.759 9C109.814 37.1355 104.278 49.4859 77.3657 65.7306Z" fill="#E6205C"/>
<path d="M77.3657 65.7306C60.4532 39.7966 86.5808 17.1044 101.759 9C109.814 37.1355 104.278 49.4859 77.3657 65.7306Z" stroke="#E6205C"/>
</g>
<g filter="url(#filter5_d_6_2)">
<path d="M78.2887 69.0941C110.112 60.3821 128.218 88.7771 133.293 104.064C101.217 104.457 89.2963 96.6455 78.2887 69.0941Z" fill="#E6205C"/>
<path d="M78.2887 69.0941C110.112 60.3821 128.218 88.7771 133.293 104.064C101.217 104.457 89.2963 96.6455 78.2887 69.0941Z" stroke="#E6205C"/>
</g>
<g filter="url(#filter6_d_6_2)">
<path d="M70.2195 73.5613C75.3613 103.322 41.83 115.662 24.4216 118.112C28.408 89.2708 38.5875 79.6473 70.2195 73.5613Z" fill="#E6205C"/>
<path d="M70.2195 73.5613C75.3613 103.322 41.83 115.662 24.4216 118.112C28.408 89.2708 38.5875 79.6473 70.2195 73.5613Z" stroke="#E6205C"/>
</g>
<g filter="url(#filter7_d_6_2)">
<path d="M70.8986 70.0341C44.9446 88.8583 16.4713 68.6154 5.47884 56.1409C35.0856 44.9524 49.3593 48.179 70.8986 70.0341Z" fill="#E6205C"/>
<path d="M70.8986 70.0341C44.9446 88.8583 16.4713 68.6154 5.47884 56.1409C35.0856 44.9524 49.3593 48.179 70.8986 70.0341Z" stroke="#E6205C"/>
</g>
<g filter="url(#filter8_d_6_2)">
<path d="M74.0346 68.8842C41.062 65.0397 37.3577 32.4183 39.6271 16.5881C69.0742 28.1173 76.4265 39.6632 74.0346 68.8842Z" fill="#E6205C"/>
<path d="M74.0346 68.8842C41.062 65.0397 37.3577 32.4183 39.6271 16.5881C69.0742 28.1173 76.4265 39.6632 74.0346 68.8842Z" stroke="#E6205C"/>
</g>
<g filter="url(#filter9_d_6_2)">
<ellipse cx="73.3002" cy="73.0982" rx="14.6358" ry="10.3147" fill="#E67D20"/>
</g>
</g>
<defs>
<filter id="filter0_i_6_2" x="10.9996" y="-8.40017" width="268" height="283.401" filterUnits="userSpaceOnUse" color-interpolation-filters="sRGB">
<feFlood flood-opacity="0" result="BackgroundImageFix"/>
<feBlend mode="normal" in="SourceGraphic" in2="BackgroundImageFix" result="shape"/>
<feColorMatrix in="SourceAlpha" type="matrix" values="0 0 0 0 0 0 0 0 0 0 0 0 0 0 0 0 0 0 127 0" result="hardAlpha"/>
<feOffset dy="-10"/>
<feGaussianBlur stdDeviation="4.2"/>
<feComposite in2="hardAlpha" operator="arithmetic" k2="-1" k3="1"/>
<feColorMatrix type="matrix" values="0 0 0 0 0 0 0 0 0 0 0 0 0 0 0 0 0 0 0.25 0"/>
<feBlend mode="normal" in2="shape" result="effect1_innerShadow_6_2"/>
</filter>
<filter id="filter1_d_6_2" x="0.629848" y="8.26746" width="148.129" height="135.692" filterUnits="userSpaceOnUse" color-interpolation-filters="sRGB">
<feFlood flood-opacity="0" result="BackgroundImageFix"/>
<feColorMatrix in="SourceAlpha" type="matrix" values="0 0 0 0 0 0 0 0 0 0 0 0 0 0 0 0 0 0 127 0" result="hardAlpha"/>
<feOffset dy="4"/>
<feGaussianBlur stdDeviation="2"/>
<feComposite in2="hardAlpha" operator="out"/>
<feColorMatrix type="matrix" values="0 0 0 0 0 0 0 0 0 0 0 0 0 0 0 0 0 0 0.25 0"/>
<feBlend mode="normal" in2="BackgroundImageFix" result="effect1_dropShadow_6_2"/>
<feBlend mode="normal" in="SourceGraphic" in2="effect1_dropShadow_6_2" result="shape"/>
</filter>
<filter id="filter2_d_6_2" x="71.9717" y="49.938" width="76.7869" height="34.9381" filterUnits="userSpaceOnUse" color-interpolation-filters="sRGB">
<feFlood flood-opacity="0" result="BackgroundImageFix"/>
<feColorMatrix in="SourceAlpha" type="matrix" values="0 0 0 0 0 0 0 0 0 0 0 0 0 0 0 0 0 0 127 0" result="hardAlpha"/>
<feOffset dy="4"/>
<feGaussianBlur stdDeviation="2"/>
<feComposite in2="hardAlpha" operator="out"/>
<feColorMatrix type="matrix" values="0 0 0 0 0 0 0 0 0 0 0 0 0 0 0 0 0 0 0.25 0"/>
<feBlend mode="normal" in2="BackgroundImageFix" result="effect1_dropShadow_6_2"/>
<feBlend mode="normal" in="SourceGraphic" in2="effect1_dropShadow_6_2" result="shape"/>
</filter>
<filter id="filter3_d_6_2" x="62.4066" y="75.6323" width="38.0123" height="68.3274" filterUnits="userSpaceOnUse" color-interpolation-filters="sRGB">
<feFlood flood-opacity="0" result="BackgroundImageFix"/>
<feColorMatrix in="SourceAlpha" type="matrix" values="0 0 0 0 0 0 0 0 0 0 0 0 0 0 0 0 0 0 127 0" result="hardAlpha"/>
<feOffset dy="4"/>
<feGaussianBlur stdDeviation="2"/>
<feComposite in2="hardAlpha" operator="out"/>
<feColorMatrix type="matrix" values="0 0 0 0 0 0 0 0 0 0 0 0 0 0 0 0 0 0 0.25 0"/>
<feBlend mode="normal" in2="BackgroundImageFix" result="effect1_dropShadow_6_2"/>
<feBlend mode="normal" in="SourceGraphic" in2="effect1_dropShadow_6_2" result="shape"/>
</filter>
<filter id="filter4_d_6_2" x="67.3696" y="8.26746" width="42.2892" height="66.1408" filterUnits="userSpaceOnUse" color-interpolation-filters="sRGB">
<feFlood flood-opacity="0" result="BackgroundImageFix"/>
<feColorMatrix in="SourceAlpha" type="matrix" values="0 0 0 0 0 0 0 0 0 0 0 0 0 0 0 0 0 0 127 0" result="hardAlpha"/>
<feOffset dy="4"/>
<feGaussianBlur stdDeviation="2"/>
<feComposite in2="hardAlpha" operator="out"/>
<feColorMatrix type="matrix" values="0 0 0 0 0 0 0 0 0 0 0 0 0 0 0 0 0 0 0.25 0"/>
<feBlend mode="normal" in2="BackgroundImageFix" result="effect1_dropShadow_6_2"/>
<feBlend mode="normal" in="SourceGraphic" in2="effect1_dropShadow_6_2" result="shape"/>
</filter>
<filter id="filter5_d_6_2" x="73.61" y="66.9722" width="64.3816" height="45.6" filterUnits="userSpaceOnUse" color-interpolation-filters="sRGB">
<feFlood flood-opacity="0" result="BackgroundImageFix"/>
<feColorMatrix in="SourceAlpha" type="matrix" values="0 0 0 0 0 0 0 0 0 0 0 0 0 0 0 0 0 0 127 0" result="hardAlpha"/>
<feOffset dy="4"/>
<feGaussianBlur stdDeviation="2"/>
<feComposite in2="hardAlpha" operator="out"/>
<feColorMatrix type="matrix" values="0 0 0 0 0 0 0 0 0 0 0 0 0 0 0 0 0 0 0.25 0"/>
<feBlend mode="normal" in2="BackgroundImageFix" result="effect1_dropShadow_6_2"/>
<feBlend mode="normal" in="SourceGraphic" in2="effect1_dropShadow_6_2" result="shape"/>
</filter>
<filter id="filter6_d_6_2" x="19.8297" y="72.9866" width="55.4316" height="53.699" filterUnits="userSpaceOnUse" color-interpolation-filters="sRGB">
<feFlood flood-opacity="0" result="BackgroundImageFix"/>
<feColorMatrix in="SourceAlpha" type="matrix" values="0 0 0 0 0 0 0 0 0 0 0 0 0 0 0 0 0 0 127 0" result="hardAlpha"/>
<feOffset dy="4"/>
<feGaussianBlur stdDeviation="2"/>
<feComposite in2="hardAlpha" operator="out"/>
<feColorMatrix type="matrix" values="0 0 0 0 0 0 0 0 0 0 0 0 0 0 0 0 0 0 0.25 0"/>
<feBlend mode="normal" in2="BackgroundImageFix" result="effect1_dropShadow_6_2"/>
<feBlend mode="normal" in="SourceGraphic" in2="effect1_dropShadow_6_2" result="shape"/>
</filter>
<filter id="filter7_d_6_2" x="0.629848" y="49.3572" width="75.0317" height="36.8378" filterUnits="userSpaceOnUse" color-interpolation-filters="sRGB">
<feFlood flood-opacity="0" result="BackgroundImageFix"/>
<feColorMatrix in="SourceAlpha" type="matrix" values="0 0 0 0 0 0 0 0 0 0 0 0 0 0 0 0 0 0 127 0" result="hardAlpha"/>
<feOffset dy="4"/>
<feGaussianBlur stdDeviation="2"/>
<feComposite in2="hardAlpha" operator="out"/>
<feColorMatrix type="matrix" values="0 0 0 0 0 0 0 0 0 0 0 0 0 0 0 0 0 0 0.25 0"/>
<feBlend mode="normal" in2="BackgroundImageFix" result="effect1_dropShadow_6_2"/>
<feBlend mode="normal" in="SourceGraphic" in2="effect1_dropShadow_6_2" result="shape"/>
</filter>
<filter id="filter8_d_6_2" x="34.565" y="15.8983" width="44.4121" height="61.5234" filterUnits="userSpaceOnUse" color-interpolation-filters="sRGB">
<feFlood flood-opacity="0" result="BackgroundImageFix"/>
<feColorMatrix in="SourceAlpha" type="matrix" values="0 0 0 0 0 0 0 0 0 0 0 0 0 0 0 0 0 0 127 0" result="hardAlpha"/>
<feOffset dy="4"/>
<feGaussianBlur stdDeviation="2"/>
<feComposite in2="hardAlpha" operator="out"/>
<feColorMatrix type="matrix" values="0 0 0 0 0 0 0 0 0 0 0 0 0 0 0 0 0 0 0.25 0"/>
<feBlend mode="normal" in2="BackgroundImageFix" result="effect1_dropShadow_6_2"/>
<feBlend mode="normal" in="SourceGraphic" in2="effect1_dropShadow_6_2" result="shape"/>
</filter>
<filter id="filter9_d_6_2" x="54.6644" y="62.7836" width="37.2715" height="28.6293" filterUnits="userSpaceOnUse" color-interpolation-filters="sRGB">
<feFlood flood-opacity="0" result="BackgroundImageFix"/>
<feColorMatrix in="SourceAlpha" type="matrix" values="0 0 0 0 0 0 0 0 0 0 0 0 0 0 0 0 0 0 127 0" result="hardAlpha"/>
<feOffset dy="4"/>
<feGaussianBlur stdDeviation="2"/>
<feComposite in2="hardAlpha" operator="out"/>
<feColorMatrix type="matrix" values="0 0 0 0 0 0 0 0 0 0 0 0 0 0 0 0 0 0 0.25 0"/>
<feBlend mode="normal" in2="BackgroundImageFix" result="effect1_dropShadow_6_2"/>
<feBlend mode="normal" in="SourceGraphic" in2="effect1_dropShadow_6_2" result="shape"/>
</filter>
</defs>
</svg>
