<svg width="268" height="275" viewBox="0 0 268 275" fill="none" xmlns="http://www.w3.org/2000/svg">
<mask id="path-1-inside-1_1_30" fill="white">
<path d="M268 137.5C268 102.376 254.901 68.5836 231.389 43.0561C207.878 17.5285 175.737 2.20126 141.562 0.219119C107.387 -1.76302 73.7677 9.75018 47.6027 32.3966C21.4377 55.043 4.71071 87.1054 0.853487 122.006C-3.00373 156.906 6.30132 191.998 26.8595 220.081C47.4178 248.165 77.6703 267.111 111.41 273.032C145.15 278.953 179.82 271.401 208.305 251.924C236.79 232.447 256.932 202.523 264.597 168.291L134 137.5H268Z"/>
</mask>
<path d="M268 137.5C268 102.376 254.901 68.5836 231.389 43.0561C207.878 17.5285 175.737 2.20126 141.562 0.219119C107.387 -1.76302 73.7677 9.75018 47.6027 32.3966C21.4377 55.043 4.71071 87.1054 0.853487 122.006C-3.00373 156.906 6.30132 191.998 26.8595 220.081C47.4178 248.165 77.6703 267.111 111.41 273.032C145.15 278.953 179.82 271.401 208.305 251.924C236.79 232.447 256.932 202.523 264.597 168.291L134 137.5H268Z" fill="#159301" stroke="#0B4B01" stroke-width="10" mask="url(#path-1-inside-1_1_30)"/>
</svg>
